<svg width="62" height="62" viewBox="0 0 62 62" fill="none" xmlns="http://www.w3.org/2000/svg">
<g filter="url(#filter0_d_1001_493)">
<path fill-rule="evenodd" clip-rule="evenodd" d="M30.9964 0C45.897 0 58 12.0939 58 26.9945C58 41.8952 45.897 53.9982 30.9964 53.9982C16.0957 53.9982 4 41.8952 4 26.9945C4 12.0939 16.0957 0 30.9964 0ZM30.9964 1.86207C17.1021 1.86207 5.86207 13.1002 5.86207 26.9945C5.86207 40.8888 17.1021 52.1361 30.9964 52.1361C44.8907 52.1361 56.1361 40.8888 56.1361 26.9945C56.1361 13.1002 44.8907 1.86207 30.9964 1.86207ZM25.6356 14.1164C25.7581 14.1102 25.8805 14.1282 25.996 14.1694C26.1114 14.2106 26.2176 14.2741 26.3085 14.3565L40.6868 27.3946C40.7831 27.4819 40.8601 27.5884 40.9128 27.7072C40.9656 27.8261 40.9928 27.9547 40.9928 28.0847C40.9928 28.2147 40.9656 28.3433 40.9128 28.4621C40.8601 28.581 40.7831 28.6875 40.6868 28.7748L26.3085 41.8056C26.218 41.8884 26.112 41.9525 25.9967 41.9942C25.8814 42.0359 25.7589 42.0544 25.6364 42.0487C25.5139 42.0429 25.3938 42.013 25.2829 41.9607C25.1719 41.9084 25.0724 41.8347 24.9901 41.7438C24.9077 41.653 24.844 41.5467 24.8027 41.4312C24.7615 41.3157 24.7435 41.1931 24.7497 41.0706C24.756 40.9481 24.7864 40.8281 24.8392 40.7173C24.892 40.6066 24.9661 40.5074 25.0574 40.4254L38.6738 28.082L25.0574 15.7385C24.8747 15.5731 24.765 15.342 24.7524 15.0959C24.7398 14.8498 24.8253 14.6088 24.9901 14.4256C25.072 14.334 25.1712 14.2596 25.282 14.2065C25.3928 14.1534 25.513 14.1228 25.6356 14.1164Z" fill="#A2A2A2"/>
</g>
<defs>
<filter id="filter0_d_1001_493" x="0" y="0" width="62" height="61.9982" filterUnits="userSpaceOnUse" color-interpolation-filters="sRGB">
<feFlood flood-opacity="0" result="BackgroundImageFix"/>
<feColorMatrix in="SourceAlpha" type="matrix" values="0 0 0 0 0 0 0 0 0 0 0 0 0 0 0 0 0 0 127 0" result="hardAlpha"/>
<feOffset dy="4"/>
<feGaussianBlur stdDeviation="2"/>
<feComposite in2="hardAlpha" operator="out"/>
<feColorMatrix type="matrix" values="0 0 0 0 0 0 0 0 0 0 0 0 0 0 0 0 0 0 0.25 0"/>
<feBlend mode="normal" in2="BackgroundImageFix" result="effect1_dropShadow_1001_493"/>
<feBlend mode="normal" in="SourceGraphic" in2="effect1_dropShadow_1001_493" result="shape"/>
</filter>
</defs>
</svg>
