<svg width="17" height="18" viewBox="0 0 17 18" fill="none" xmlns="http://www.w3.org/2000/svg">
<path d="M0.199806 8.93811C0.199806 8.83811 0.199806 8.7381 0.199806 8.6381V8.5381V8.43811C0.199806 8.33811 0.299805 8.3381 0.299805 8.3381L6.0998 1.13811C6.39981 0.738105 7.0998 0.638105 7.4998 0.938105C7.8998 1.23811 7.99981 1.9381 7.69981 2.3381L3.19981 7.93811H15.7998C16.3998 7.93811 16.7998 8.33811 16.7998 8.93811C16.7998 9.53811 16.3998 9.93811 15.7998 9.93811H3.2998L7.8998 15.6381C8.1998 16.0381 8.19981 16.7381 7.69981 17.0381C7.49981 17.1381 7.2998 17.2381 7.0998 17.2381C6.7998 17.2381 6.4998 17.1381 6.2998 16.8381L0.399803 9.43811C0.399803 9.43811 0.399805 9.33811 0.299805 9.33811V9.2381C0.299805 9.1381 0.199806 9.03811 0.199806 8.93811Z" fill="#E7E7E7"/>
</svg>
