<svg width="54" height="54" viewBox="0 0 54 54" fill="none" xmlns="http://www.w3.org/2000/svg">
<g id="Group">
<path id="Vector" fill-rule="evenodd" clip-rule="evenodd" d="M27.0036 0C12.103 0 0 12.0939 0 26.9945C0 41.8952 12.103 53.9982 27.0036 53.9982C41.9043 53.9982 54 41.8952 54 26.9945C54 12.0939 41.9043 0 27.0036 0ZM27.0036 1.86207C40.8979 1.86207 52.1379 13.1002 52.1379 26.9945C52.1379 40.8888 40.8979 52.1361 27.0036 52.1361C13.1093 52.1361 1.86388 40.8888 1.86388 26.9945C1.86388 13.1002 13.1093 1.86207 27.0036 1.86207ZM32.3644 14.1164C32.2419 14.1102 32.1195 14.1282 32.004 14.1694C31.8886 14.2106 31.7824 14.2741 31.6915 14.3565L17.3132 27.3946C17.2169 27.4819 17.1399 27.5884 17.0872 27.7072C17.0344 27.8261 17.0072 27.9547 17.0072 28.0847C17.0072 28.2147 17.0344 28.3433 17.0872 28.4621C17.1399 28.581 17.2169 28.6875 17.3132 28.7748L31.6915 41.8056C31.782 41.8884 31.888 41.9525 32.0033 41.9942C32.1186 42.0359 32.2411 42.0544 32.3636 42.0487C32.4861 42.0429 32.6062 42.013 32.7171 41.9607C32.8281 41.9084 32.9276 41.8347 33.0099 41.7438C33.0923 41.653 33.156 41.5467 33.1973 41.4312C33.2385 41.3157 33.2565 41.1931 33.2503 41.0706C33.244 40.9481 33.2136 40.8281 33.1608 40.7173C33.108 40.6066 33.0339 40.5074 32.9426 40.4254L19.3262 28.082L32.9426 15.7385C33.1253 15.5731 33.235 15.342 33.2476 15.0959C33.2602 14.8498 33.1747 14.6088 33.0099 14.4256C32.928 14.334 32.8288 14.2596 32.718 14.2065C32.6072 14.1534 32.487 14.1228 32.3644 14.1164Z" fill="#242424"/>
</g>
</svg>
