<svg width="17" height="17" viewBox="0 0 17 17" fill="none" xmlns="http://www.w3.org/2000/svg">
<path d="M16.6 8.43713C16.6 8.33713 16.6 8.23713 16.6 8.13713V8.03713V7.93713C16.6 7.83713 16.5 7.83713 16.5 7.83713L10.7 0.637129C10.4 0.237128 9.7 0.137129 9.3 0.437129C8.9 0.737129 8.8 1.43713 9.1 1.83713L13.6 7.43713H1C0.4 7.43713 0 7.83713 0 8.43713C0 9.03713 0.4 9.43713 1 9.43713H13.5L8.9 15.1371C8.6 15.5371 8.6 16.2371 9.1 16.5371C9.3 16.6371 9.5 16.7371 9.7 16.7371C10 16.7371 10.3 16.6371 10.5 16.3371L16.4 8.93713C16.4 8.93713 16.4 8.83713 16.5 8.83713V8.73713C16.5 8.63713 16.6 8.53713 16.6 8.43713Z" fill="#2D2D2D"/>
</svg>
