<svg width="20" height="20" viewBox="0 0 20 20" fill="none" xmlns="http://www.w3.org/2000/svg">
<path d="M9.92378 0C9.80238 0 9.68098 0 9.55958 0H9.43818H9.31678C9.19538 0 9.19538 0.12048 9.19538 0.12048L0.454563 7.10843C-0.0310382 7.46988 -0.152438 8.31325 0.211763 8.79518C0.575963 9.27711 1.42576 9.39759 1.91137 9.03614L8.70978 3.61446L8.70978 18.7952C8.70978 19.5181 9.19538 20 9.92378 20C10.6522 20 11.1378 19.5181 11.1378 18.7952L11.1378 3.73494L18.0576 9.27711C18.5432 9.63855 19.393 9.63855 19.7572 9.03614C19.8786 8.79518 20 8.55422 20 8.31325C20 7.95181 19.8786 7.59036 19.5144 7.34939L10.5308 0.240959C10.5308 0.240959 10.4094 0.240961 10.4094 0.12048H10.288C10.1666 0.12048 10.0452 0 9.92378 0Z" fill="#414141"/>
</svg>
